# xmcd CD database file
#
# Track frame offsets:
#	150
#	20598
#	42430
#	64048
#	83085
#	97944
#	112054
#	131570
#	153352
#	168793
#	199997
#	213920
#	241797
#
# Disc length: 3426 seconds
#
# Revision: 0
# Processed by: cddbd v1.5.1PL0 Copyright (c) Steve Scherf et al.
# Submitted via: CDex 1.51
#
DISCID=a60d600d
DTITLE=Gauche - Paints Lane
DYEAR=2005
DGENRE=New Age
TTITLE0=The Road
TTITLE1=Honeymoon
TTITLE2=Butter
TTITLE3=Take My Hand
TTITLE4=Jemima
TTITLE5=Barbed Wire
TTITLE6=Savoir Faire
TTITLE7=Can't Get Back
TTITLE8=Flying
TTITLE9=CCTV
TTITLE10=Trapeze
TTITLE11=Classrooms
TTITLE12=When Clouds Collide
EXTD=YEAR: 2005
EXTT0=
EXTT1=
EXTT2=
EXTT3=
EXTT4=
EXTT5=
EXTT6=
EXTT7=
EXTT8=
EXTT9=
EXTT10=
EXTT11=
EXTT12=
PLAYORDER=
